<?xml version="1.0" encoding="UTF-8" standalone="no"?>
<!-- Created with Inkscape (http://www.inkscape.org/) -->

<svg
  width="12.7mm"
  height="12.7mm"
  viewBox="0 0 12.7 12.7"
  version="1.1"
  id="svg5"
  inkscape:version="1.1.2 (0a00cf5339, 2022-02-04)"
  sodipodi:docname="user.svg"
  xmlns:inkscape="http://www.inkscape.org/namespaces/inkscape"
  xmlns:sodipodi="http://sodipodi.sourceforge.net/DTD/sodipodi-0.dtd"
  xmlns="http://www.w3.org/2000/svg"
>
  <sodipodi:namedview
     id="namedview7"
     pagecolor="#ffffff"
     bordercolor="#666666"
     borderopacity="1.0"
     inkscape:pageshadow="2"
     inkscape:pageopacity="0.0"
     inkscape:pagecheckerboard="0"
     inkscape:document-units="mm"
     showgrid="false"
     fit-margin-top="0"
     fit-margin-left="0"
     fit-margin-right="0"
     fit-margin-bottom="0"
     inkscape:zoom="1.4788159"
     inkscape:cx="-90.274927"
     inkscape:cy="-49.363818"
     inkscape:window-width="1920"
     inkscape:window-height="1008"
     inkscape:window-x="0"
     inkscape:window-y="0"
     inkscape:window-maximized="1"
     inkscape:current-layer="layer1" />
  <defs
     id="defs2" />
  <g
     inkscape:label="Calque 1"
     inkscape:groupmode="layer"
     id="layer1"
     transform="translate(-144.65482,-181.15362)">
    <circle
       cx="151.00482"
       cy="187.50362"
       r="6.3499999"
       fill="#d9d9d9"
       id="circle9"
       style="stroke-width:0.264583" />
    <path
       d="m 147.82985,191.20778 v -0.82505 c 0,-0.43765 0.17385,-0.85735 0.48331,-1.16681 0.30946,-0.30946 0.72917,-0.48332 1.16681,-0.48332 h 3.30023 c 0.43765,0 0.85736,0.17386 1.16681,0.48332 0.30946,0.30946 0.48332,0.72916 0.48332,1.16681 v 0.82505"
       stroke="#000000"
       stroke-opacity="0.5"
       stroke-width="2"
       stroke-linecap="round"
       stroke-linejoin="round"
       id="path11" />
    <path
       d="m 151.1301,187.09968 c -0.91133,0 -1.6501,-0.73877 -1.6501,-1.65011 0,-0.91133 0.73877,-1.65012 1.6501,-1.65012 0.91136,0 1.65013,0.73879 1.65013,1.65012 0,0.91134 -0.73877,1.65011 -1.65013,1.65011 z"
       stroke="#000000"
       stroke-opacity="0.5"
       stroke-width="2"
       stroke-linecap="round"
       stroke-linejoin="round"
       id="path13" />
  </g>
</svg>
